<svg xmlns="http://www.w3.org/2000/svg" viewBox="0 0 16 16">
    <path d="m6.22 12.305-3.198-4.3 3.181-4.178-.614-.842-3.584 4.713L2 8.3l3.601 4.848.62-.843Z" fill="#f6821f"></path>
    <path d="M7.337 2h-1.23l4.439 6.1L6.21 14h1.238l4.333-5.898L7.337 2Z" fill="#f6821f"></path>
    <path d="M9.717 2H8.471l4.51 6.027L8.47 14h1.25L14 8.33v-.603L9.717 2Z" fill="#f6821f"></path>
    <path d="m7.771 5.578-.335 1.716h.877l.295.538-2.227 3.365-.486-.635.329-1.7h-.878l-.295-.537 2.223-3.424.497.677Z"
        fill="#f6821f"></path>
</svg>
